<?xml version="1.0" encoding="utf-8"?>
<!-- Generator: Adobe Illustrator 27.5.0, SVG Export Plug-In . SVG Version: 6.00 Build 0)  -->
<svg version="1.1" id="Layer_2_00000139270520646151740090000004284194812030219422_"
	 xmlns="http://www.w3.org/2000/svg" xmlns:xlink="http://www.w3.org/1999/xlink" x="0px" y="0px" viewBox="0 0 1694.3 1232.4"
	 enable-background="new 0 0 1694.3 1232.4" xml:space="preserve">
<g id="Layer_3">
	<path fill="#84D309" stroke="#000000" stroke-width="8" stroke-miterlimit="10" d="M440.4,92.2c-0.2-0.1-0.4-0.1-0.6-0.2
		c-2-0.3-4.4,1.9-3.3,3.7c47.7,2.6,94.7-4.8,142-10.5c140.6-16.9,295.3-52,429.5,11.1c119.2,56,233.4,135.6,305.8,247.4
		c52,80.4,79.4,174.7,72.3,270.6c-7.6,102.7-74.8,181.5-162.4,229.5c-83.8,45.9-191,76.2-286.7,65.6c-42.1-4.7-83.9-17-124.6-28.5
		c0,0-13.9,112-116.9,120.9S518,953.2,515,941.4c0,0,107,7.9,104-84.2c-3-92.2,26.8-96.1,26.8-96.1s-79.3-49.5-87.2-136.7
		c0,0,7.9,85.2-57.5,140.7c-47.5,40.3-100.3,68.2-152.8,100.8c-51.1,31.7-96.7,72.6-133.6,120.2c0,0-43.6-120.9,98.1-336.9
		c0,0,62.4-92.2,85.2-121.9c22.8-29.7,40.6-84.2,40.6-84.2c-56.4-52.9-110.4-112.1-152.5-177.1c-27.1-41.8-41.1-90-55.3-137.2
		c-11.2-37.2-28-80.3-27-119.7c0,0,119.9,112,193.2,157.5c18.7,11.6,38,23.7,55.3,37.2c12.7,9.9,19.7,28.5,35.5,34.1
		c5.2,1.9,10.9,1.9,16.4,1.9c16-0.1,31.9-0.3,47.9-0.6c-38.3-45.9-72.1-95.3-107.8-143.2C443.3,94.4,442.1,92.8,440.4,92.2
		L440.4,92.2z"/>
	<path fill="#FF0000" stroke="#FF0000" stroke-miterlimit="10" d="M898.8,567.8c0.7-2,2.1-4.2,2.5-4.6c0,0,0.7,2.7,3,5
		c2.3,2.4,6.5,4.7,8.6,5.3c2.1,0.6,4.5,1.4,9.5,0.8c0,0-2.6,1-3.4,4.2c-0.8,3.2-2,3.3-1,10.1s14.7,17.7,17.1,18.9
		c2.4,1.2,8.2,4.8,14.2,14.1c6,9.3,1.9,5.5,12,17.2c10.1,11.7,22,2.3,23.6,1c1.6-1.3,6.8-7.7,8.8-8c0,0,1.7-2.4,6.5-2.4
		s4.6,1.7,4.5,2.4s-5.8,5.1-11.6,13.7c-5.7,8.6,1.2,17.9,2.4,19c1.3,1.1,2.2,4,19,8.4s17,4,18.8,3.3s4.5-2.7,5.1-3.3
		c0.6-0.6,1.9-2.3,4.6-2.5c2.6-0.2,4.5,2.5,4.5,2.5s0.7,2.5,3.7,5.9s7.2,4.8,7.9,5.3c0.8,0.4,2.8,3.1,21.6,4.1
		c18.8,1,27.2-2.3,34.5-4.4c7.3-2.2,22.1-7.1,49.5-10.4s47.4-25.2,47.4-25.2s20.1-14.5,20.9-17.3c0.8-2.9-2.8-8.3-2.8-8.3l-5.1-7.6
		c0,0,3.7-0.5,5.3,1.3s2.6,4.6,5.5,5.4c2.9,0.7,6-2.2,6-2.2s5.2-5.9,7.1-10.6s7.7-17.7,10.7-34c3.1-16.3,2.1-17.3,4.9-21.8
		c2.8-4.5,9.7-12.7,10.2-15.8c0.5-3,2.4-5.9,2.4-5.9s3.1,2.8,3.6,13.7s-5.3,17.8-5.4,21.5c-0.2,3.6-3.2,25-15.6,36
		c0,0-2.8,19.6-4.8,23.5c-2,3.8-2.5,2.2-4.2,11.8s2.5,38.8,2.5,57.7s-0.4,17-2.4,18.5s-4.8-1-5.2-1.6s-2.2-7.6-1.8-9.5
		c0.4-1.9,3.2-11.3,2.6-25.9c-0.6-14.2-0.7-30.6-1.2-36.7c0-0.2,0-0.4,0-0.5c-0.5-5.5-0.5,5.6-3.5,13c-3,7.4-3.3,9.2-6.7,14.1
		s-5.2,6.8-13,11.4c-7.8,4.6-18.4,5.7-19.1,6.1c-0.7,0.4-6.9,1.7-13.4,6.4c-6.4,4.6-14.3,12.1-16.8,13.4s-4.5,4.5-24.5,8.3
		c0,0-3.3-0.5-9.5,1.5c-6.2,2-7.8,3.3-9.7,4.5s-9.2,5.2-31.9,3.8c0,0-18.6-4-29.2-11.3s-16.9-10.2-20.6-10.9
		c-3.6-0.7-20.5-0.7-23.3-2.2c-2.8-1.5-19.3-10.1-23.2-12.7c-3.9-2.6-15.5-9.3-15.5-9.3l1.7,59.8c0,0,0.7,2.7-1.7,4.3
		s-4.9-0.3-5.2-0.7s-1.4-2.1-1.6-5.5c-0.2-3.5,0.8-9,0.8-9s0.2-11.7-1.3-24.2c-1.6-12.5,2.7-26.5,2.7-26.5s0.1-4.7-3-8.6
		c-3.1-3.9-6.7-0.5-7.7,0.7s-2.5,3.5-2.4,6.1c0.2,5.2-0.5,10.6-0.8,15.8s-0.5,10.7-0.7,16c-0.1,3.4-0.2,6.9-0.4,10.3
		c-0.1,3.7,0.1,7.6-0.2,11.3c-0.1,0.7-0.3,1.3-0.8,1.8c-0.7,0.5-1.6,0.6-2.4,0.6c-0.7,0-1.6-0.1-2-0.7c-0.1-0.3-0.1-0.5-0.1-0.8
		c0-4.4,0.1-8.9,0.1-13.3c0-2-0.4-4.8,0.3-6.7c0.9-2.6,1.7-36.4,2.1-38.1s0.2-9.2-2-12c-2.2-2.7-5.3-5.3-7.1-5.8
		c-1.8-0.5-3.8-0.7-5-1.8c-1.2-1.1-1.4-3.2,2-6s-2.7-8.1-2.7-8.1s-9.8-7.3-11.2-9.1c-1.3-1.8-14.3-14.4-15.9-16.7
		s-8.4-8.4-12.5-17.4c0,0-6.8-6.5-9.2-11.5S898.1,569.8,898.8,567.8L898.8,567.8z"/>
	<g>
		<path d="M1287.2,470.2c0.1,0,0.7-0.7,0.7-0.7c-18.4-3.8-18.9-12.3-18.9-12.3s-0.2-2,3.8-4.2c2.5-1.4,5.6-1.7,8.3-1.2
			c0.8-1.8,3.7-8.9,6.6-6.4c2.6,2.2,2.2,6.6,2.3,9.7c0.1,3.6,0.1,7.3,0.1,10.9l0.3,24.4c0.1,8,0.2,16,0.3,24.1
			c0.1,3.6,0.1,7.3,0.2,10.9c0,0.9,0,1.8,0,2.6c0,2.4-0.1,4.8-0.1,7.2c0,3.5-0.1,7-0.1,10.6c-0.1,4.3-0.1,8.5-0.2,12.8
			c0,0.6,0,1.2,0,1.8c0,0.5-0.1,0.9-0.1,1.4c0.1,0.9,0.6,1.8,1.4,2.4c0.3,0.2,0.7,0.3,0.9,0.1c0.2-0.2,0.2-0.4,0.2-0.6
			c0-2.5,0-5-0.1-7.5l-0.1-21.8c0-6.8-0.1-13.5-0.1-20.3c0-5.9-0.1-11.8-0.1-17.7l-0.1-14c0-3.1,0-6.1-0.1-9.2c0-1.1,0-2.2,0-3.3
			c0,0-0.7-14,0.4-23s12.7-14.4,12.7-14.4c-13,5.2-19.2,3.5-19.2,3.5c15.1-14.6,13.4-22.7,13.4-22.7c-2.9,3.9-6.4,8-10.5,10.6
			c-1.1,0.7-2.5,1-3.6,0.4c-0.7-0.5-1.1-1.3-1.4-2.1c-1.3-3.9-0.5-8.1,1.1-11.7c1.6-3.6,2.5-7.5,3.3-11.4c0.4-2.1,0.4-4.5-0.7-6.4
			c-1.3-2.1-3.9-3.2-6.4-3.3c-4.2-0.2-7.8,1.7-11.6,3c-7.5,2.5-15.3,4.4-22.9,6.4c-3.4,0.9-6.3,3.9-9.1,6c-3.2,2.4-6.4,4.7-9.7,7
			c-3.5,2.4-7,4.7-10.8,6.7c-2.4,1.3-5.3,3-8.1,3c-4.2,0.1-8.3,0.6-12.4,1.3c-0.4,0.1-0.9,0.1-1.2,0.4c-0.7,0.4-1,1.2-1.4,1.9
			c-0.5,0.7-1,1.3-1.6,1.8c-1.2,1.2-2.7,2.1-4.3,2.7c-3.4,1.2-7,1.5-10.4,2.3c-4.3,1-8.5,2.2-12.7,3.5c-4.5,1.5-9,3.1-13.4,4.9
			c-1.3,0.5-2.6,1.1-3.9,1.6c-0.3,0.1-1.2,0.3-1.3,0.6c0,0-0.1,0.1-0.1,0.2c-3,4.2-6.9,7.8-11.6,10.1c-1.6,0.8-3.3,1.4-5,1.8
			c-1.9,0.4-3.8,0.5-5.7,0.6c-0.8,0-1.6,0-2.4,0.1c-0.2,0-0.6,0.1-0.6,0.3c0,0.2,0.2,0.4,0.4,0.5c2.7,1.5,5.6,1.1,8.4,2
			c0.7,0.2,2.4,0.8,2.6,1.7c2.6,11.4-6.2,23.4-6.2,23.4c1.9,2.5,11.6-15.2,11.6-15.2c3.4,1.5,1.7,6.7,0.9,9.2
			c-0.7,2.3-1.5,4.5-2.6,6.7c0,0,9.2-11.3,13.1-8c3.7,3-2.3,9.5-4.4,11.8c3.8-2.9,9.2-6.6,13.7-2.7c-1.1,0.9-2.4,1.5-3.5,2.5
			c-1.1,1-2,2.1-2.9,3.3c-1.7,2.4-2.9,5.1-3.9,7.8c-1.1,3.1-1.9,6.3-2.4,9.5c-0.2,1.2,0,3.1-0.5,4.2c0,0,10.2-21.4,16.9-20.5
			s5.5,4,17.4,8.3c3.3,1.2,6.8,2.2,10.3,2.6c3.3,0.4,6.7-0.8,10,0c1.9,0.5,3.6,1.5,5.3,2.5c1.7,0.9,3.5,1.6,5.2,2.2
			c2.2,0.8,4.9,2,7.3,1.6c0.1,0,1.5-0.6,1.3-0.7c-9.2-5.5-6-11.3-6-11.3s1.7-5.5,7.9-4c1.5,0.3,3,1,4.2,2c0.6,0.5,1.1,1.2,1.4,1.9
			c0.1,0.2,0.5,2.1,0.6,2.1c3.1,1.4,6.2,2.5,9.5,3.1c3.6,0.5,7.5,0.3,10.8-1.2c0.9-0.4,1.8-0.9,2.6-1.6c0.1-0.1,0.7-0.7,0.8-0.7
			c-21.4,1.6-20.5-5.5-20.5-5.5c18.9,0.8,19.4-2.2,19.4-2.2s-39.1-2.5-20-4.3c19.2-1.8,28.4-4.6,28.4-4.6s-15.5-10.9-1.1-12.1
			c3-0.3,6-0.3,9,0c2.9,0.3,5.3,1.1,8,2.3c3.1,1.4,6.7,1.1,9.8,0C1285.4,471.3,1286.3,470.8,1287.2,470.2L1287.2,470.2z
			 M1216.5,433.1c1.6,0,2.9,1.1,2.9,2.6s-1.3,2.6-2.9,2.6s-2.9-1.1-2.9-2.6S1214.9,433.1,1216.5,433.1z M1239.5,448.1
			c-1.3,3.2-3.5,6-6.5,7.8c-6.6,4.1-12.1,6.9-24.4,7.4c-6.3,0.2-13-0.8-18.6-3.6c-2.7-1.4-4.9-3.3-7.1-5.5c-1.3-1.3-3.7-3.2-4-5.1
			c6.9-2.8,13.2-6.6,19.8-10c2.7,7.4,7.6,11.4,15.7,12.2c14.4,1.5,19.7-8.3,19.7-8.3c1.9-2.7,3.6-5.5,4.8-8.6
			c1.5,0.3,2.5,1.8,2.7,3.3C1242,441,1240.7,445.3,1239.5,448.1L1239.5,448.1z"/>
		<path fill="#FFFFFF" d="M1216.5,438.2c1.6,0,2.9-1.1,2.9-2.6s-1.3-2.6-2.9-2.6s-2.9,1.1-2.9,2.6S1214.9,438.2,1216.5,438.2z"/>
		<path fill="#FFFFFF" d="M1241.6,437.9c-0.2-1.5-1.2-3-2.7-3.3c-1.2,3.1-2.9,5.9-4.8,8.6c0,0-5.3,9.7-19.7,8.3
			c-8.1-0.8-13-4.8-15.7-12.2c-6.6,3.4-12.9,7.1-19.8,10c0.3,1.9,2.7,3.8,4,5.1c2.2,2.1,4.3,4.1,7.1,5.5c5.7,2.9,12.3,3.9,18.6,3.6
			c12.4-0.5,17.8-3.3,24.4-7.4c3-1.9,5.2-4.6,6.5-7.8C1240.7,445.3,1242,440.9,1241.6,437.9L1241.6,437.9z"/>
	</g>
	<g>
		<path d="M1080.5,481.9c-2.8,11-6.7,20.8-18.7,21.9c-9.3,0.8-13.5-11.9-15.4-18.9c-0.8-3.1,0.7-5,2-7.5c1.4-2.6,2.7-5.3,3.8-8
			c3-6.9,5.5-14.1,6.3-21.6c1.8-16.1-1.4-20.8-1.4-20.8c-1,6.9-2.8,13.6-4.8,20.4c-1.7,5.9-4.8,11-8.7,15.7c-1.4,1.7-6.7,8.2-8.8,4
			c-2.9-5.9,5.2-25,7.6-30.6c-1.9,4-7.2,14.3-10.2,9.6c-3.6-5.7-3.8-13.7-3.8-13.7c-2.3,19.9-4.5,23.7-9.1,25.7
			c-4.7,2-8.4-0.4-8.4-0.4s-2.1,0-2.9-14.1c-0.8-13.7,2.1-22.5,2.2-23c-18.7,21.9-27.3,3.3-27.3,3.3s-1.1-13-0.3-19.3
			c0.8-6.3,2.9-10.7,2.8-16.4c-0.2-5.7-1-6.2-1.6-6.9c-0.6-0.7-2.9-1.9-4.7,1.4c-1.8,3.2-0.9,11.6-2.4,15.4
			c-0.6,1.4-1.8,2.5-3.1,3.2c-1.3,0.7-2.9,0.6-4.2,1.5c-1.3,0.9-2.1,2.7-3.2,3.9c-1.2,1.4-2.6,2.8-4,4c-1.9,1.6-4.6,1.9-7,1.8
			c-3.3-0.1-6.5-0.3-9.8-0.2c1.6-9.1,3.2-18.2,4.3-27.4c1-8.6,1.7-17.4,0.7-26.1c-0.2-1.8-0.5-3.5-0.9-5.2c-0.1-0.3-0.6-1.2-0.5-1.5
			c0,0-23.5,91.7-30.3,75.7c-6.8-16-10.1-13.2-10.1-13.2c7,23.9,3.8,53.3,1,54.1c-2.8,0.7-8.3-14.2-8.3-14.2
			c-2.5,3-2.7,7.6-2.6,11.2c0.1,3.6,1,7,1.2,10.6c0,0.8,0.2,1.6,0.8,2.1c0.3,0.2,0.7,0.3,1,0.5c5.1,1.6,15.5,4.8,12.8,12.3
			c-1,2.7-3,4.8-5.7,5.8c-1.2,0.5-2.5,0.8-3.7,0.9c-1.6,0.2-3.3-0.5-4.9-0.1c-2.7,0.5-3.3,5-3.2,7.2c0,0.4,1,4.4,0.9,4.5
			c4.2-4.5,9.7-2.6,9.7-2.6s18.4,8.3,17.7,14.5c-0.8,6.2-32.5,0.2-32.5,0.2c11.7,9.3,30.9,13.5,37.9,12.5c7-1.1,10.2,3.7,10.2,3.7
			s16.4,30,7.3,28.4c-9.2-1.6-14.5,0-14.5,0s1.6,5.5,12.1,6.4c10.6,0.9,13.8-0.2,13.8-0.2s5.7-4.4,10.1-1.6c1.7,1.1,2.7,3.1,3,5.1
			c0.3,2-0.7,4.3,0.4,6.2c0.8,1.4,2.3,2.3,3.2,3.7c1.2,1.8,2.3,3.5,3.2,5.5c0.6,1.3,1.2,2.5,1.3,4c0,1.5-0.3,2.9-0.6,4.3
			c-1.2,4.7-3.7,9-6.5,12.8c-1.4,2-3,4-4.7,5.7c0.6-0.6,2.9-0.9,3.8-1.2c1.1-0.4,2.2-0.9,3.3-1.5c5-2.7,8.9-6.8,11.2-11.9
			c2.3-4.9,4.1-12.1,2.3-17.3c-1.2-3.5-4.7-5.2-5.3-8.9c-0.7-4,2.3-7.6,5.1-10.1c2.1-1.9,4.4-3.7,6.9-5c1.3-0.7,2.7-1.3,4.2-1.4
			c1-0.1,2.8,0,3.3,1c0.2,0.4,0.2,0.9,0.2,1.3c0,2.1,0,4.2,0.1,6.4c0,2.8,0.1,5.6,0.1,8.4c0,3.5,0.1,7,0.2,10.5
			c0.1,3.9,0.1,7.8,0.2,11.7c0.1,4,0.1,8,0.2,12.1c0.1,3.9,0.1,7.8,0.2,11.7c0,3.5,0.1,7,0.2,10.5c0,2.8,0.1,5.7,0.1,8.5
			c0.1,4.9,0.1,9.8,0.1,14.7c0,0.7,0,1.6,0.6,2.1c0.6,0.5,1.6,0.5,2.2,0s0.9-1.3,0.9-2.1c0-1.2-0.3-2.3-0.3-3.5
			c0-1.5-0.1-3.1-0.1-4.7c-0.1-3.2-0.1-6.4-0.2-9.6c-0.2-9.6-0.3-19.1-0.5-28.7c-0.2-9.8-0.3-19.5-0.4-29.3c-0.1-7,0.3-14.1-0.1-21
			c0-0.8-0.1-1.6,0.2-2.4c0.3-0.8,0.8-1.5,1.6-1.7c1.1-0.2,2.2,0.6,2.7,1.6c0.8,1.5,0.9,3.3,1.7,4.8c0.5,0.9,1.1,1.8,1.8,2.6
			c1.2,1.3,2.7,2.3,4.4,2.9c0.5,0.2,1,0.3,1.6,0.5c0.1,0,0.6,0,0.6,0.1c-3.3-4.8-4.8-10.9-3.2-16.7c0.7-2.4,2.4-4.7,4.9-5.3
			c2.3-0.6,4.7,0.4,6.4,1.9c5.2,4.6,7.4,12.1,8.1,18.7c1.6,15,15.7,17.5,16.3,17.5c-0.4-0.2-7.1-4-10.1-20.1
			c-3.1-16.7,2.5-25.9,5.7-29.5c3.2-3.6,11.7-8.2,14.5-9.5s12-4.8,11.9-13.2c-0.1-8.4,1.2-10.5,1.2-10.5
			C1084.4,490,1080.6,482,1080.5,481.9L1080.5,481.9z M989.6,487.9c1.7-0.8,3.6-0.4,4.2,0.9s-0.2,3.1-1.9,3.9s-3.6,0.4-4.2-0.9
			S987.9,488.8,989.6,487.9z M1014.5,504.6c-13.1,9.2-25.9,13.5-32.4,13.6s-23.7-0.8-27.6-3.8c-3.8-2.9-0.3-8.2-0.2-8.4
			c3.8-5.5,8.3-9.9,14.6-12.5c0,0,4.7,15.6,21.3,13.4c16.7-2.2,18.1-16.2,18.6-20.7c0,0,11-2.3,14.4,0.9c3.4,3.2,2.7,5.8,2.7,5.8
			S1027.6,495.4,1014.5,504.6L1014.5,504.6z"/>
		
			<ellipse transform="matrix(0.8988 -0.4384 0.4384 0.8988 -114.6858 483.9591)" fill="#FFFFFF" cx="990.8" cy="490.4" rx="3.4" ry="2.7"/>
		<path fill="#FFFFFF" d="M1023.2,487.1c-3.4-3.2-14.4-0.9-14.4-0.9c-0.5,4.5-1.9,18.5-18.6,20.7c-16.7,2.2-21.3-13.4-21.3-13.4
			c-6.2,2.6-10.8,7-14.6,12.5c-0.1,0.2-3.7,5.4,0.2,8.4c3.9,3,21,4,27.6,3.8s19.3-4.4,32.4-13.6c13.1-9.2,11.4-11.7,11.4-11.7
			S1026.6,490.4,1023.2,487.1L1023.2,487.1z"/>
	</g>
	<path fill="none" stroke="#000000" stroke-width="5" stroke-miterlimit="10" d="M743.5,492.3c0,0-110,289.3,125.8,327"/>
	<path fill="none" stroke="#000000" stroke-width="5" stroke-miterlimit="10" d="M751.1,509.1c0,0-83.2,243.7,97.1,290.3"/>
	<path fill="#84D309" stroke="#000000" stroke-width="5" stroke-miterlimit="10" d="M605.1,954.5c0,0,110,18.8,86.2-22.8
		c-23.8-41.6,14.9-76.3,14.9-76.3"/>
	<path fill="#84D309" stroke="#000000" stroke-width="5" stroke-miterlimit="10" d="M297.9,827.7c0,0,53.5-147.6,157.5-210.1"/>
	<path fill="#84D309" stroke="#000000" stroke-width="5" stroke-miterlimit="10" d="M309.2,208.8c0,0,7.9,50.2,95.1,129.5"/>
	<path fill="none" stroke="#000000" stroke-width="8" stroke-miterlimit="10" d="M552.2,239.1c0,0,148.7-152.9,257.7-46.8"/>
</g>
</svg>
